<?xml version='1.0' encoding='utf-8'?>
<svg xmlns="http://www.w3.org/2000/svg" version="1.1" viewBox="0 0 1280 720"> <path d="m1409.4-131.16h-1681.4v1105.9h1681.4v-1105.9z" fill="#239e46" fill-rule="evenodd" stroke="#239e46" stroke-linecap="round" stroke-linejoin="round" stroke-width="4"/> <g id="Layer_4"> <path d="m657.62 641.95c0.031-0.015 313.16-155.72 313.19-155.74 0 1e-3 -0.733 12.955-0.733 12.956-0.031 0.016-312.42 156.09-312.45 156.1v-13.323z" fill="#fb82ab" fill-rule="evenodd" stroke="#fb82ab" stroke-linecap="round" stroke-linejoin="round" stroke-width="1"/> </g> <g id="Layer_5" fill-rule="evenodd" stroke-linecap="round" stroke-linejoin="round" stroke-width="1"> <path d="m660.73 604.27c0.029-0.014 284.34-141.22 284.37-141.23 3e-3 2e-3 26.129 23.088 26.132 23.091-0.031 0.015-307.61 153.43-307.64 153.45-1e-3 -3e-3 -2.863-35.304-2.863-35.308z" fill="#f75392" stroke="#f75392"/> <path d="m665.66 554.96c-1e-3 0-7.849 3.983-7.85 3.983 0 0.01-0.114 96.459-0.114 96.468 1e-3 0 7.424-3.758 7.425-3.758 0-0.01 0.539-96.684 0.539-96.693z" fill="#fd83ac" stroke="#fd83ac"/> <path d="m970.73 403.07c-0.031 0.015-307.28 153.01-307.31 153.03 0 1e-3 -0.838 13.415-0.838 13.416 0.031-0.015 307.7-153.43 307.73-153.45 0-1e-3 0.419-12.996 0.42-12.997z" fill="#fd83ac" stroke="#fd83ac"/> <path d="m738.28 552.83c7e-3 3e-3 68.343 33.992 68.35 33.996-4e-3 0-28.937 1.298-41.189 3.16-2.454 0.373-6.254 0.042-8.097 1.705-0.761 0.686-0.965 2.188-1.322 3.148-2.219 5.964-6.29 20.255-6.29 20.257-7e-3 -3e-3 -67.27-33.992-67.276-33.996 5e-3 -3e-3 55.819-28.267 55.824-28.27z" fill="#424a5f" stroke="#424a5f"/> </g> <g id="Layer_3" fill-rule="evenodd" stroke-linecap="round" stroke-linejoin="round" stroke-width="1"> <path d="m665.8 566.83c0.029-0.014 289.55-142.48 289.58-142.49 0 2e-3 2.905 12.626 3.415 18.139 0.239 2.596 0.388 6.099 0.093 8.689-0.294 2.584-1.339 5.921-2.036 8.426-1.94 6.971-7.422 22.945-7.423 22.948-0.028 0.014-283.6 141.04-283.63 141.06v-56.767z" fill="#fff" stroke="#fff"/> <path d="m597.47 207.9c0.037 0.019 373.48 195.27 373.52 195.29-0.031 0.016-311.62 157.05-311.65 157.07-0.039-0.02-389.65-196.03-389.69-196.05 0.032-0.016 327.78-156.29 327.82-156.31z" fill="#f75392" stroke="#f75392"/> <path d="m269.92 363.91c0.039 0.02 388.45 195.16 388.49 195.18 0 0.01-1.571 97.199-1.572 97.209-0.038-0.02-387.74-196.86-387.78-196.88 0-9e-3 0.865-95.494 0.865-95.504z" fill="#d71d5c" stroke="#d71d5c"/> </g> <g id="a"> <path d="m653.81 510.85c0.025-0.012 245.53-122.1 245.56-122.11 0 1e-3 -0.575 10.158-0.575 10.159-0.024 0.012-244.96 122.38-244.98 122.39v-10.446z" fill="#28afe9" fill-rule="evenodd" stroke="#28afe9" stroke-linecap="round" stroke-linejoin="round" stroke-width="1"/> </g> <g id="b" fill-rule="evenodd" stroke-linecap="round" stroke-linejoin="round" stroke-width="1"> <path d="m656.25 481.3c0.023-0.011 222.94-110.72 222.96-110.73 2e-3 2e-3 20.487 18.103 20.489 18.105-0.024 0.012-241.18 120.3-241.21 120.31 0-3e-3 -2.244-27.681-2.245-27.684z" fill="#48bdff" stroke="#48bdff"/> <path d="m660.12 442.64-6.154 3.123c0 8e-3 -0.09 75.63-0.09 75.638 1e-3 -1e-3 5.821-2.947 5.822-2.947 0-8e-3 0.422-75.807 0.422-75.814z" fill="#28afe9" stroke="#28afe9"/> <path d="m899.31 323.55c-0.024 0.012-240.93 119.97-240.95 119.98 0 1e-3 -0.657 10.518-0.657 10.519 0.024-0.012 241.26-120.3 241.28-120.31 0-1e-3 0.329-10.19 0.329-10.191z" fill="#28afe9" stroke="#28afe9"/> <path d="m717.06 440.97c5e-3 2e-3 53.585 26.652 53.59 26.655-3e-3 0-22.688 1.018-32.295 2.477-1.924 0.293-4.903 0.033-6.348 1.337-0.596 0.538-0.756 1.716-1.037 2.468-1.74 4.676-4.931 15.882-4.932 15.884-5e-3 -3e-3 -52.743-26.653-52.749-26.655 5e-3 -3e-3 43.766-22.164 43.771-22.166z" fill="#424a5f" stroke="#424a5f"/> </g> <g id="Layer_3" fill-rule="evenodd" stroke-linecap="round" stroke-linejoin="round" stroke-width="1"> <path d="m660.23 451.94c0.023-0.011 227.03-111.71 227.05-111.72 0 2e-3 2.278 9.899 2.677 14.223 0.188 2.035 0.304 4.781 0.073 6.812-0.23 2.026-1.05 4.642-1.596 6.607-1.521 5.465-5.819 17.99-5.82 17.992-0.022 0.011-222.36 110.59-222.38 110.6v-44.509z" fill="#fff" stroke="#fff"/> <path d="m606.65 170.53c0.029 0.015 292.83 153.11 292.86 153.12-0.025 0.012-244.33 123.14-244.35 123.15-0.031-0.016-305.51-153.7-305.54-153.72 0.026-0.012 257-122.54 257.03-122.56z" fill="#48bdff" stroke="#48bdff"/> <path d="m349.83 292.85c0.031 0.015 304.57 153.01 304.6 153.03 0 7e-3 -1.232 76.21-1.232 76.218-0.03-0.016-304.02-154.35-304.05-154.37 0-7e-3 0.678-74.874 0.678-74.881z" fill="#2a95f5" stroke="#2a95f5"/> </g> <g id="c"> <path d="m644.8 391.16c0.017-9e-3 175.53-87.286 175.55-87.295 0 1e-3 -0.411 7.262-0.411 7.262-0.017 9e-3 -175.12 87.492-175.14 87.501v-7.468z" fill="#ff0" fill-rule="evenodd" stroke="#ff0" stroke-linecap="round" stroke-linejoin="round" stroke-width="1"/> <g fill-rule="evenodd" stroke-linecap="round" stroke-linejoin="round" stroke-width="1"> <path d="m646.54 370.04c0.016-8e-3 159.38-79.157 159.4-79.165 2e-3 2e-3 14.646 12.942 14.648 12.944-0.018 8e-3 -172.42 86.003-172.44 86.012 0-2e-3 -1.605-19.789-1.605-19.791z" fill="#feff91" stroke="#feff91"/> <path d="m649.31 342.4c-1e-3 0-4.4 2.232-4.4 2.233 0 5e-3 -0.064 54.068-0.064 54.073 0 0 4.161-2.106 4.162-2.106 0-6e-3 0.302-54.195 0.302-54.2z" fill="#ff0" stroke="#ff0"/> <path d="m820.31 257.26c-0.017 8e-3 -172.24 85.768-172.26 85.777 0 0-0.47 7.519-0.47 7.52 0.017-9e-3 172.48-86.004 172.49-86.012 0-1e-3 0.235-7.285 0.235-7.285z" fill="#ff0" stroke="#ff0"/> <path d="m690.01 341.21c4e-3 2e-3 38.309 19.054 38.312 19.056-2e-3 0-16.219 0.728-23.087 1.771-1.376 0.209-3.506 0.024-4.539 0.956-0.426 0.384-0.541 1.226-0.741 1.765-1.244 3.343-3.526 11.353-3.526 11.355-4e-3 -2e-3 -37.707-19.054-37.711-19.056 4e-3 -2e-3 31.289-15.845 31.292-15.847z" fill="#424a5f" stroke="#424a5f"/> </g> <g fill-rule="evenodd" stroke-linecap="round" stroke-linejoin="round" stroke-width="1"> <path d="m649.39 349.05c0.016-8e-3 162.3-79.864 162.32-79.872 0 1e-3 1.628 7.077 1.914 10.167 0.134 1.455 0.217 3.419 0.052 4.871-0.164 1.448-0.75 3.318-1.141 4.723-1.087 3.907-4.16 12.861-4.161 12.863-0.016 7e-3 -158.97 79.059-158.98 79.067v-31.819z" fill="#fff" stroke="#fff"/> <path d="m611.08 147.86c0.02 0.011 209.35 109.46 209.37 109.47-0.017 9e-3 -174.67 88.034-174.69 88.043-0.022-0.011-218.41-109.88-218.43-109.89 0.019-8e-3 183.73-87.608 183.75-87.617z" fill="#feff91" stroke="#feff91"/> <path d="m427.48 235.31c0.022 0.011 217.74 109.39 217.76 109.4 0 5e-3 -0.881 54.483-0.881 54.488-0.021-0.011-217.34-110.35-217.36-110.36 0-6e-3 0.485-53.528 0.485-53.533z" fill="#c0c200" stroke="#c0c200"/> </g> </g> </svg>