<?xml version='1.0' encoding='utf-8'?>
<svg xmlns="http://www.w3.org/2000/svg" fill="none" viewBox="0 0 1080 1080"> <rect width="1080" height="1080" fill="#fff"/> <rect width="1080" height="1080" fill="#41B3A3"/> <path d="m938.76 512.02-273.46-345.19c-6.675-8.426-18.917-9.845-27.343-3.17l-497.43 394.06c-8.426 6.676-9.845 18.917-3.17 27.344l273.46 345.19c6.675 8.426 18.917 9.845 27.343 3.17l497.43-394.06c8.426-6.675 9.846-18.917 3.171-27.343z" fill="#999" opacity=".35714"/> <path d="m942.66 497.59-273.46-345.19c-6.675-8.426-18.917-9.846-27.343-3.17l-497.43 394.06c-8.426 6.675-9.846 18.917-3.171 27.343l273.46 345.19c6.675 8.426 18.917 9.846 27.343 3.171l497.43-394.06c8.426-6.675 9.845-18.917 3.17-27.343z" fill="#E3E2DB"/> <g opacity=".439"> <path d="m620.48 222.05c48.527 59.453 97.022 118.93 145.49 178.44 30.221 37.104 60.43 74.217 90.627 111.34" fill="#999"/> <path d="m620.48 222.05c48.527 59.453 97.022 118.93 145.49 178.44 30.221 37.104 60.43 74.217 90.627 111.34" stroke="#000" stroke-width="1.2756"/> <path d="m578.45 272.3c49.258 59.536 98.485 119.1 147.68 178.68 30.677 37.155 61.342 74.319 91.994 111.49" fill="#999"/> <path d="m578.45 272.3c49.258 59.536 98.485 119.1 147.68 178.68 30.677 37.155 61.342 74.319 91.994 111.49" stroke="#000" stroke-width="1.2766"/> <path d="m527.55 300.95c50.949 61.565 101.86 123.16 152.75 184.77 31.729 38.422 63.445 76.854 95.148 115.3" fill="#999"/> <path d="m527.55 300.95c50.949 61.565 101.86 123.16 152.75 184.77 31.729 38.422 63.445 76.854 95.148 115.3" stroke="#000" stroke-width="1.3396"/> <path d="m478.93 330.03c52.278 63.413 104.52 126.85 156.74 190.32 32.557 39.575 65.102 79.16 97.634 118.76" fill="#999"/> <path d="m478.93 330.03c52.278 63.413 104.52 126.85 156.74 190.32 32.557 39.575 65.102 79.16 97.634 118.76" stroke="#000" stroke-width="1.3575"/> <path d="m436.95 368.04c52.471 64.663 104.91 129.35 157.31 194.07 32.676 40.356 65.34 80.722 97.99 121.1" fill="#999"/> <path d="m436.95 368.04c52.471 64.663 104.91 129.35 157.31 194.07 32.676 40.356 65.34 80.722 97.99 121.1" stroke="#000" stroke-width="1.3902"/> <path d="m396.09 406.94c49.456 61.046 98.88 122.12 148.27 183.22 30.799 38.099 61.586 76.207 92.36 114.33" fill="#999"/> <path d="m396.09 406.94c49.456 61.046 98.88 122.12 148.27 183.22 30.799 38.099 61.586 76.207 92.36 114.33" stroke="#000" stroke-width="1.312"/> <path d="m352.95 439.46c48.788 59.852 97.544 119.73 146.27 179.63 30.384 37.354 60.755 74.716 91.113 112.09" fill="#999"/> <path d="m352.95 439.46c48.788 59.852 97.544 119.73 146.27 179.63 30.384 37.354 60.755 74.716 91.113 112.09" stroke="#000" stroke-width="1.288"/> <path d="m311.12 474.8c48.41 59.912 96.789 119.85 145.14 179.81 30.148 37.39 60.284 74.791 90.407 112.2" fill="#999"/> <path d="m311.12 474.8c48.41 59.912 96.789 119.85 145.14 179.81 30.148 37.39 60.284 74.791 90.407 112.2" stroke="#000" stroke-width="1.2866"/> <path d="m267.02 504.96c49.08 61.006 98.127 122.04 147.14 183.1 30.564 38.074 61.116 76.158 91.654 114.25" fill="#999"/> <path d="m267.02 504.96c49.08 61.006 98.127 122.04 147.14 183.1 30.564 38.074 61.116 76.158 91.654 114.25" stroke="#000" stroke-width="1.3186"/> <path d="m233.76 555.8c47.231 58.546 94.432 117.12 141.6 175.71 29.414 36.538 58.816 73.085 88.206 109.64" fill="#999"/> <path d="m233.76 555.8c47.231 58.546 94.432 117.12 141.6 175.71 29.414 36.538 58.816 73.085 88.206 109.64" stroke="#000" stroke-width="1.4168"/> </g> <path d="m775.68 427.41c-2.872-0.085-5.842 0.34-8.765 1.341l-121.43 41.597 1.323 3.643-166.13 56.91c-2.989 1.023-4.955 3.488-5.254 6.162l-25.647 19.62 0.096 0.262-4.854 2.877s0.091 0.482 0.14 0.385l5.642-0.709 0.115 0.307 32.624-0.352c1.96 1.933 5.116 2.669 8.129 1.637l166.13-56.904 1.514 4.162 121.43-41.598c11.689-4.004 18.047-15.629 14.248-26.066l-0.115-0.319c-2.849-7.828-10.579-12.698-19.197-12.955z" fill="#666" opacity=".25974"/> <path d="m438.88 551.83-1.052-2.889-5.607 3.328s0.091 0.482 0.14 0.385l6.519-0.824z" fill="#500"/> <path d="m472.52 551.88-8.526-23.424-27.01 20.668 1.137 3.123 34.399-0.367z" fill="#D45500"/> <path d="m721.2 443.9 6.244 17.154c1.31 3.6-0.896 7.637-4.928 9.018l-243.65 83.462c-4.032 1.381-8.363-0.418-9.673-4.018l-6.244-17.154c-1.31-3.6 0.896-7.637 4.928-9.018l243.65-83.462c4.032-1.381 8.362 0.418 9.672 4.018z" fill="#C83737"/> <path d="m727.64 461.2c1.315 3.611-0.883 7.633-4.927 9.018l-243.65 83.462c-4.044 1.385-8.359-0.406-9.674-4.017l-3.557-9.772 258.25-88.463 3.556 9.772z" fill="#666" opacity=".33766"/> <path d="m782.2 433.13c3.799 10.438-2.555 22.065-14.245 26.069l-121.43 41.596-13.831-37.999 121.43-41.596c11.689-4.004 24.16 1.174 27.96 11.612l0.115 0.318z" fill="#C83737"/> <path d="m750.23 443.08c2.049-0.702 4.25 0.212 4.916 2.042 0.666 1.829-0.455 3.881-2.504 4.583l-75.848 25.981c-2.049 0.702-4.25-0.212-4.916-2.042-0.666-1.829 0.456-3.881 2.505-4.583l75.847-25.981z" fill="#999"/> <path d="m678.64 468.02 2.01 5.521c0.666 1.83-0.455 3.882-2.504 4.583l-9.069 3.107c-2.049 0.702-4.25-0.212-4.916-2.042l-2.009-5.521c-0.666-1.829 0.455-3.881 2.504-4.583l9.069-3.107c2.049-0.701 4.249 0.213 4.915 2.042z" fill="#999"/> <path d="m749.32 440.58c2.049-0.702 4.17-7e-3 4.738 1.553s-0.633 3.393-2.682 4.095l-75.848 25.981c-2.049 0.702-4.17 6e-3 -4.738-1.553-0.567-1.56 0.634-3.393 2.682-4.095l75.848-25.981z" fill="#F2F2F2"/> <path d="m677.71 465.47 1.713 4.707c0.568 1.56-0.633 3.393-2.682 4.095l-9.068 3.106c-2.049 0.702-4.171 7e-3 -4.738-1.553l-1.713-4.707c-0.568-1.559 0.633-3.393 2.682-4.095l9.068-3.106c2.049-0.702 4.17-6e-3 4.738 1.553z" fill="#F2F2F2"/> <path d="m781.93 446.29c-2.257 5.717-7.218 10.593-13.984 12.911l-121.43 41.596-2.628-7.22 138.04-47.287z" fill="#666" opacity=".39"/> </svg>