<?xml version='1.0' encoding='utf-8'?>
<svg xmlns="http://www.w3.org/2000/svg" enable-background="new 0 0 3000 3000" version="1.1" viewBox="0 0 3e3 3e3"> <rect width="3e3" height="3e3" fill="#FFD28F"/> <rect x="801.2" y="483.4" width="1610.9" height="2245.6" fill="#E0B97E"/> <rect x="693.2" y="375.4" width="1610.9" height="2245.6" fill="#fff"/> <polygon points="901.6 521.4 1055.5 999.6 979.5 956.1 946 1044.6 792.1 566.5" fill="#D43535"/> <polygon points="892.1 566.5 738.2 1044.6 704.7 956.1 628.7 999.6 782.7 521.4" fill="#D43535"/> <path d="m1075.7 528.5c0 13.4-18 25-20.3 37.7-2.3 13 10.7 30.1 6.2 42.3-4.5 12.4-25.4 17.1-32 28.4s-0.2 31.9-8.6 41.9-29.7 7.4-39.7 15.8-11 29.8-22.3 36.4c-11.2 6.5-30.3-3.3-42.8 1.2-12.1 4.4-20.4 24.2-33.6 26.5-12.7 2.3-27.2-13.5-40.6-13.5s-27.9 15.8-40.6 13.5c-13-2.3-21.3-22.1-33.6-26.5-12.4-4.5-31.4 5.2-42.8-1.2-11.3-6.6-12.4-28-22.3-36.4-10-8.4-31.3-5.8-39.7-15.8s-2-30.5-8.6-41.9c-6.5-11.2-27.5-16-32-28.4-4.4-12.1 8.5-29.3 6.2-42.3-2.3-12.7-20.3-24.3-20.3-37.7s18-25 20.3-37.7c2.3-13-10.7-30.1-6.2-42.3 4.5-12.4 25.4-17.1 32-28.4s0.2-31.9 8.6-41.9 29.7-7.4 39.7-15.8 11-29.8 22.3-36.4c11.2-6.5 30.3 3.3 42.8-1.2 12.1-4.4 20.4-24.2 33.6-26.5 12.7-2.3 27.2 13.5 40.6 13.5s27.9-15.8 40.6-13.5c13 2.3 21.3 22.1 33.6 26.5 12.4 4.5 31.4-5.2 42.8 1.2 11.3 6.6 12.4 28 22.3 36.4 10 8.4 31.3 5.8 39.7 15.8s2 30.5 8.6 41.9c6.5 11.2 27.5 16 32 28.4 4.4 12.1-8.5 29.3-6.2 42.3 2.2 12.8 20.3 24.4 20.3 37.7z" fill="#FE4040"/> <circle cx="842.1" cy="528.5" r="148.7" fill="#D43535"/> <g fill="#fff"> <path d="m766.4 591.6h-35.2l47.8-126.2h36.1l47.8 126.2h-35.2l-8.1-22.5h-45.1l-8.1 22.5zm16.2-46h28.8l-14.4-42.4-14.4 42.4z"/> <path d="m922.3 515.8h30.7v25.2h-30.6v30.6h-25.2v-30.6h-30.6v-25.2h30.6v-30.6h25.2v30.6z"/> </g> <rect x="1742.1" y="567.7" width="365.5" height="382.4" fill="#D6E7FF"/> <g fill="#3BAB80"> <circle cx="1924.9" cy="698.3" r="101.8"/> <path d="m1846.2 787.3c21 18.5 48.4 29.7 78.6 29.7s57.7-11.2 78.6-29.7c45.8 27 76.6 76.8 76.6 133.9h-310.2c-0.1-57 30.5-106.9 76.4-133.9z"/> </g> <rect x="1253.4" y="585.8" width="401.6" height="28.9" fill="#FFD1D3"/> <rect x="1253.4" y="662.9" width="401.6" height="28.9" fill="#E0E0E0"/> <rect x="1253.4" y="740" width="401.6" height="28.9" fill="#E0E0E0"/> <rect x="1253.4" y="817.1" width="401.6" height="28.9" fill="#E0E0E0"/> <rect x="1253.4" y="894.2" width="401.6" height="28.9" fill="#E0E0E0"/> <g fill="#E0E0E0"> <rect x="889.6" y="1118" width="401.6" height="28.9"/> <rect x="889.6" y="1195.1" width="765.8" height="28.9"/> <rect x="889.6" y="1272.2" width="765.8" height="28.9"/> </g> <g fill="#E0E0E0"> <path d="m2094.9 2379.5h-376.1c-7 0-12.8-5.7-12.8-12.8v-3.4c0-7 5.7-12.8 12.8-12.8h376.1c7 0 12.8 5.7 12.8 12.8v3.4c-0.1 7.1-5.8 12.8-12.8 12.8z"/> <path d="m2047.4 2456.6h-281.1c-7 0-12.8-5.7-12.8-12.8v-3.4c0-7 5.7-12.8 12.8-12.8h281.1c7 0 12.8 5.7 12.8 12.8v3.4c-0.1 7.1-5.8 12.8-12.8 12.8z"/> </g> <path d="m1860.8 1423.6h-740.3c-7 0-12.7-5.7-12.7-12.8v-3.4c0-7 5.7-12.8 12.7-12.8h740.3c7 0 12.8 5.7 12.8 12.8v3.4c0 7.1-5.7 12.8-12.8 12.8z" fill="#FFC2C4"/> <rect x="889.6" y="1487.8" width="1218" height="61.3" fill="#FFAEB1"/> <rect x="889.6" y="1549" width="1218" height="61.3" fill="#FFFAA1"/> <rect x="889.6" y="1610.3" width="1218" height="61.3" fill="#FF9DFC"/> <rect x="889.6" y="1671.6" width="1218" height="61.3" fill="#FFFAA1"/> <rect x="889.6" y="1732.8" width="1218" height="61.3" fill="#FF9DFC"/> <rect x="889.6" y="1794.1" width="1218" height="61.3" fill="#FFFAA1"/> <rect x="889.6" y="1855.3" width="1218" height="61.3" fill="#FF9DFC"/> <rect x="889.6" y="1916.6" width="1218" height="61.3" fill="#FFFAA1"/> <rect x="889.6" y="1977.9" width="1218" height="61.3" fill="#FF9DFC"/> <rect x="889.6" y="2039.1" width="1218" height="61.3" fill="#FFFAA1"/> <g fill="#9E9D9D" opacity=".5"> <rect x="1490.7" y="1487.8" width="15.9" height="612.6" opacity=".5"/> <rect x="1791.4" y="1487.8" width="15.9" height="612.6" opacity=".5"/> <rect x="1173.8" y="1487.8" width="15.9" height="612.6" opacity=".5"/> </g> </svg>